# xmcd
#
# Track frame offsets:
#	150
#	12210
#	28530
#	44145
#	66440
#	82445
#	100420
#	114482
#	135557
#	149612
#
# Disc length: 2251 seconds
#
# Revision: 0
# Processed by: cddbd v1.4PL0 Copyright (c) Steve Scherf et al.
# Submitted via: EasyCDDAExtractor 5.0.2.1
#
DISCID=9708c90a
DTITLE=Alex Rehak
DYEAR=1988
DGENRE=Pop
TTITLE0=Let's Get Friends
TTITLE1=Cantavo Che Sara
TTITLE2=The Styrian Way
TTITLE3=Fairy Tale
TTITLE4=Pilot
TTITLE5=No Time To Lose
TTITLE6=Bananas
TTITLE7=Faraway
TTITLE8=Teach Me
TTITLE9=Cinderella
EXTD=
EXTT0=
EXTT1=
EXTT2=
EXTT3=
EXTT4=
EXTT5=
EXTT6=
EXTT7=
EXTT8=
EXTT9=
PLAYORDER=
